<svg xmlns="http://www.w3.org/2000/svg" xmlns:xlink="http://www.w3.org/1999/xlink" viewBox="0 0 780 780"><defs><style>.a{isolation:isolate;}.b{fill:url(#a);}.c{fill:url(#b);}.d{fill:url(#c);}.e{fill:url(#d);}.f{fill:#dc9326;}.g{fill:#87594f;opacity:0.49;}.ai,.aj,.g,.i,.s,.u,.y{mix-blend-mode:multiply;}.h{fill:#f6d060;}.i{fill:#912607;opacity:0.55;}.j{fill:#984827;}.k{fill:#823616;}.l{fill:#c06e1c;}.m{fill:#d0340a;}.n{fill:#c36f2f;}.o{fill:#e7390c;}.p{fill:#5f8f36;}.q{fill:#6da43e;}.r{fill:url(#e);}.s{fill:#d2720c;opacity:0.3;}.t{fill:#e5f9b8;opacity:0.27;}.ah,.t{mix-blend-mode:overlay;}.u{fill:#d28e0c;opacity:0.24;}.v{fill:url(#f);}.w{fill:#c52c2c;}.x{fill:url(#g);}.y{fill:#4a301e;opacity:0.26;}.z{fill:#cc3434;opacity:0.86;}.aa{fill:#fd813a;}.ab{fill:#bc2929;}.ac{fill:url(#h);}.ad{fill:#d84036;}.ae{fill:url(#i);}.af{fill:#218720;}.ag{fill:url(#j);}.ah{fill:#bdf19e;opacity:0.2;}.ai{fill:#a47a2e;opacity:0.22;}.aj{fill:#764013;opacity:0.42;}</style><radialGradient id="a" cx="390.12" cy="433.66" r="354.48" gradientTransform="translate(10.64 26.17) scale(0.96 0.98)" gradientUnits="userSpaceOnUse"><stop offset="0" stop-color="#c4ced4"/><stop offset="1" stop-color="#819ec0"/></radialGradient><radialGradient id="b" cx="375.52" cy="423.09" fx="252.44757562696603" fy="416.14553863048314" r="351.85" gradientTransform="translate(10.64 26.17) scale(0.96 0.98)" gradientUnits="userSpaceOnUse"><stop offset="0" stop-color="#fcffff"/><stop offset="1" stop-color="#ebf3fa"/></radialGradient><radialGradient id="c" cx="390.11" cy="414.52" r="258.21" gradientTransform="translate(10.64 26.17) scale(0.96 0.98)" gradientUnits="userSpaceOnUse"><stop offset="0" stop-color="#e3e8eb"/><stop offset="1" stop-color="#a1bace"/></radialGradient><radialGradient id="d" cx="394.23" cy="469.74" r="201.64" gradientTransform="translate(20.5 -20.28) scale(0.93 0.96)" gradientUnits="userSpaceOnUse"><stop offset="0" stop-color="#eff6f9"/><stop offset="0.99" stop-color="#d9e7f2"/></radialGradient><linearGradient id="e" x1="157.32" y1="309.35" x2="621.96" y2="309.35" gradientUnits="userSpaceOnUse"><stop offset="0" stop-color="#f6bc43"/><stop offset="1" stop-color="#eca848"/></linearGradient><linearGradient id="f" x1="408.18" y1="306.31" x2="466.91" y2="306.31" gradientUnits="userSpaceOnUse"><stop offset="0" stop-color="#65a240"/><stop offset="1" stop-color="#4b8c2f"/></linearGradient><linearGradient id="g" x1="-504.74" y1="114.82" x2="-451.04" y2="187.05" gradientTransform="matrix(0.88, -0.27, 0.32, 0.94, 703.54, -27.98)" gradientUnits="userSpaceOnUse"><stop offset="0" stop-color="#f28b51"/><stop offset="1" stop-color="#e55e49"/></linearGradient><linearGradient id="h" x1="309.09" y1="216.34" x2="346.73" y2="285.48" gradientTransform="matrix(-1, 0, 0, 1, 720.61, 0)" gradientUnits="userSpaceOnUse"><stop offset="0" stop-color="#e55e49"/><stop offset="1" stop-color="#f28b51"/></linearGradient><linearGradient id="i" x1="316.94" y1="280.3" x2="418.78" y2="280.3" xlink:href="#f"/><linearGradient id="j" x1="301.87" y1="348.38" x2="406.62" y2="348.38" xlink:href="#f"/></defs><title>Tekengebied 38</title><g class="a"><path class="b" d="M725.67,451.88c0,91.45-152.25,165.58-340,165.58s-340-74.13-340-165.58,152.22-165.68,340-165.68S725.67,360.42,725.67,451.88Z"/><path class="c" d="M725.67,441.45c0,91.44-152.25,165.58-340,165.58s-340-74.14-340-165.58,152.22-165.57,340-165.57S725.67,350,725.67,441.45Z"/><path class="d" d="M640.26,433c0,57.28-114,103.81-254.58,103.81S131.06,490.31,131.06,433s114-103.78,254.62-103.78S640.26,375.76,640.26,433Z"/><path class="e" d="M633.33,430.73c0,56.15-110.28,101.51-246.32,101.51S140.8,486.88,140.8,430.73,251.05,329.25,387,329.25,633.33,374.7,633.33,430.73Z"/><polygon class="f" points="160.6 433.77 191.74 418.88 482.04 356.59 631.66 416.14 628.21 428.3 517.9 480.48 441.52 514.91 358.25 554.22 291.89 521.7 201.92 474.39 167.4 455.46 160.6 433.77"/><path class="g" d="M159.17,456.91s10.45,19.23,29.63,23.6,32.25,20.95,49.69,27,29.65,17.4,46.2,25.32,34.91,17.4,43.59,24.45,31.38,14.74,31.38,14.74,15.67-13.88,28.8-21.79,38.32-19.12,56.69-26.17,47-20.93,62.68-27,37.57-20.93,49.74-27S593.35,454.36,609,450a79.33,79.33,0,0,0,27-14l-1.8-18.28S618.54,429.89,603.81,436s-28.84,7-39.3,12.28S538.36,466.52,521,476.14s-61.93,22.64-81,31.41-63.63,34.93-80.26,43.58c-27.89-13.89-61-30.45-71.46-36.65s-35.75-16.55-46.22-20-35.73-28.85-46.18-29.7-35.71-25.33-35.71-25.33Z"/><path class="h" d="M158.18,452.38s10.45,19.23,29.64,23.61,32.24,20.94,49.68,27,29.65,17.42,46.24,25.32,34.81,17.42,43.55,24.35,31.38,14.84,31.38,14.84,15.7-14,28.72-21.77,38.44-19.24,56.69-26.18,47.09-20.94,62.78-27,37.47-20.93,49.64-27,35.77-15.7,51.46-20.09a79.3,79.3,0,0,0,27-14l-1.7-18.28s-15.7,12.19-30.53,18.28-28.73,6.94-39.19,12.17-26.16,18.38-43.66,28-61.81,22.64-81,31.4-63.63,34.83-80.18,43.59c-27.9-14-61-30.55-71.49-36.65S251.45,493.4,241,489.87s-35.73-28.73-46.2-29.58S159,435,159,435Z"/><path class="i" d="M635,431.45l-1.7-18.28s-15.7,12.19-30.53,18.28-28.73,6.94-39.19,12.17-26.16,18.38-43.66,28-61.81,22.64-81,31.4-63.49,34.75-80.09,43.55c.07,6,.5,14.06.89,20.12,3.6-3.17,16.67-14.31,27.74-20.93,13.13-7.91,38.44-19.24,56.69-26.18s47.09-20.94,62.78-27,37.47-20.93,49.64-27,35.77-15.7,51.46-20.09A79.3,79.3,0,0,0,635,431.45Z"/><path class="j" d="M314.8,527.55c5.83,6.5,19.29-.29,16.61-9.51-1.42,8,6.9,14.18,13.62,8.8-10.89,8.46-5.22,25.35,8.84,24.95,14.82-.4,15.82-19.22,11.73-29.49h0c2.84,13.76,19.29,10.48,15.52-3,3.4,9.8,14.36,17.14,24.82,11.83,11.06-5.62,5-18.5-3.74-22.44,2.08,3.19,8.18,4.16,11.4,1.56,3.63-3,2-7.9.76-11.22,1,9.76,13.58,14.6,20.82,7.63,6.48-6.32-.11-16.06-6.71-19.79,7.17,10.15,19.72,1.76,11.2-8.48,13.56,10.88,27.06-19.22,16.75-28.45-9.94-8.77-29.14-.93-42.06-3.68-29-6.12-80.1-16.78-101.5,2.36C302.11,458.28,302.67,514,314.8,527.55Z"/><path class="j" d="M179.1,421c-5.62-22.18-46.34,12.87-15.14,14.81-8.58,2.47-10.58,13.32-2.59,18.46,6.74,4.27,17.21-3,19.94-9.62-11.18,14.22,15.94,18.17,15,0-6.12,10.5,18.13,10.87,23.42,6.87-7.21.09-18.16,5.24-20.69,12.84-3.93,11.84,12.6,10.06,18.29,5-10,4.92-6.84,21.31,3.09,24.47,11.27,3.58,21.34-9.18,18.78-19.31-.17,3.29.91,10.36,4.28,12.06,4.58,2.37,10.33-2.77,9.67-7.68-.13,6.67-1.54,17.46,7.28,19.78,6.45,1.66,14.72-5.47,14.54-11.95-4,6.3-4.94,28,7.54,18.13-3.16,6.46-6.13,14.25-.57,20.16s16.35,6,22.89,1.87c15.54-9.77,8.68-35,5.51-49.52-8.72-39.93-47.43-62.53-85.27-70.82-18.24-4-34.48,1.54-51.23,8.39Z"/><path class="k" d="M473.78,466.18c-9.58,25,27.5,26,24.33,6.58,0,18.32,19.27,28.22,33.77,15,12.78-11.62,8.07-30.24-1.59-42,3,5.72,12.42,8.56,17.72,4.14,5.85-4.81,3.3-14,.23-19.44,5.32,7.09,25.9,1.35,21.36-7.49-1.08,10.07,2.46,20.6,13.71,20.78,11.7.09,17.87-7.63,15-19.11-2.05,24.92,47.51,16,22-10.3,6.11,2.88,15.42,7.65,21.11,1.6,5.28-5.63,2.37-16.06-1.42-21.58-9.62-13.66-32.89-14.57-47.88-16-39.48-3.47-78.68,9.07-110.56,32.37C468,420.6,456.19,437,451,453.13c-2.24,7.31-2.92,20.11,5.19,24.31C463.78,481.43,472.26,473.63,473.78,466.18Z"/><path class="l" d="M439.31,469.41c5.9-.65,9.54-6.88,11.89-11.44-1.22,2.19-.36,7.36,1.44,9.26,2.39,2.4,4.64,1.16,7.18-.42,6-3.62,9.34-9.21,11.7-15.59,3.12,3.86,2,10.75,7.7,12.55,4.63,1.52,14-4.15,13-9.4.67,9.39,5.87,17.43,16.56,15.86s14.24-10.58,11.68-20.21a33.68,33.68,0,0,0-7.93-13.45c9.31,16.16,32.56-2.27,20-13.71,3.62,6.7,10.59,5.21,17,4.47,8-.88,11.19-3.59,16.69-9.1-4.68,16,31,13.29,27.65-3.76h0c1.26,5.57,10,13.85,15.67,8.11,4.5-4.58,0-15.3-3.06-19.61,3.94,3.48,8.34,6.19,13.69,5.12,5-.89,10-4.93,9.44-10.46-1.16-10.07-18.06-16-26.42-18.25-7.77-2.23-16.24-2-24.28-1.81A307.77,307.77,0,0,0,525.53,384c-29.22,6.29-60.63,17.78-80.37,41.51C440.84,430.68,421.14,471.73,439.31,469.41Z"/><path class="m" d="M543.82,410.39C534.53,414.5,532.3,429.8,539,433s21.74,1.37,24.8-7.49S562.39,402,543.82,410.39Z"/><path class="n" d="M173.56,415.61c-9.59-1.08-14.71,12.17-3.13,12.58-3,4-10.64,11.36-5.81,16.83,5.42,6.11,14-3.22,16.15-8.22-.49,5.85,1.91,12.8,8.5,8.71,4.47-2.76,8-8.55,8.94-13.65-1.14,12.43,14.8,10.82,22,8.31-1,2.24-3.38,4-2.38,7.07.91,2.84,4.24,4.24,6.94,3.81-4.66,0-11.3,4.46-9.68,9.75,1.91,6.12,9.2,5.64,13.21,2.12-4,3.62-9.19,17.26.5,16.53,6.45-.45,10.74-10.88,12.58-16.07-.4,5,.58,13.18,6.83,13,4.64-.23,9.18-4.78,12.21-8-4.47,4.39-6.79,15.75.68,18.63s11.28-7.76,16.52-10.57c-5,11.27,7.43,24.26,17,13.6-7.05,3.64-8.35,17.09.43,19.37,10.26,2.57,14.8-8.7,16.61-16.54,1.17,2,.28,5.32,1.09,7.83.71,2.33,1.72,6,3.6,7.62,5,4.52,10.74-2.12,12.85-6.59-3.5,16.88,23.55,29.51,30.3,11.42-3.17,4.87-11.29,16.51-4.17,21.58,8.71,6.13,11.89-12,13-16.88,2.19,4,6.09,4.64,9.36,1.36s2.88-8.1,2.81-12.4c7.29,13.09,28.15,5.47,19.44-9.33,2.68,9.16,13.14.74,9.93-5.78,3.16,3.18,6.82,9.05,12.21,4.48,3.92-3.28.56-10.42-1-14.33,17.33,2.65,7.77-16.14-1.18-21.17-4.69-2.7-9.16-4-13.28-7.66-7.23-6.34-14-12.65-22.37-17.52-28.09-16.49-62-30.37-94-35.42-24.65-3.78-48.67.67-73.26,1.45C203,402,191.77,406.41,179.22,412Z"/><path class="m" d="M416,472.1c-9.3,4.12-11.41,19.42-4.87,22.59s21.75,1.48,24.91-7.39S434.68,463.76,416,472.1Z"/><path class="o" d="M201,427.91c-9.32,4.22-11.43,19.52-4.88,22.58S217.85,452,221,443.1,219.61,419.67,201,427.91Z"/><polygon class="f" points="163.98 407.33 164.67 399.94 237.77 389.81 434.01 373.49 593.77 341.69 627.62 365.39 601.87 391.84 545.65 408.04 500.38 435.09 459.04 443.9 407.58 479.76 354.83 507.52 321.68 485.83 250.63 465.58 217.44 427.7 191.07 424.24 163.98 407.33"/><path class="p" d="M459.78,443.2c-8.53,3.87-10.49,17.93-4.45,20.81s20,1.28,22.88-6.84S476.81,435.57,459.78,443.2Z"/><path class="g" d="M630.4,386.34c-5.92-3.17-13.06-4.88-20.06-6-2.49,1.95-5.12,3.9-7.6,5.67-13,9.61-41.85,20.08-59.26,22.76s-29.68,13-41.85,24.35-41,0-55.84,9.62-40,33.12-52.31,41.87-39.18,21.79-39.18,21.79-31.39-27-45.34-29.6-41.81-4.36-54.06-13.13-25.26-36.63-38.32-39.2c-9.52-1.93-24.09-4.32-39-11.52l-1.64,1.12c-.44.12-.88.35-1.31.48-3.71-1.93-8.79-.59-13.2,2,.14,1.59.25,2.66.25,2.66s20,16.56,31.39,15.7,19.15-1.81,26.12,8.66,16.59,31.41,38.4,34.93,33.95,5.24,47.94,12.18,49.64,33.22,49.64,33.22,19.22-10.47,36.61-19.23,46.25-45.4,61.08-48.81,23.49,4.37,47.08-4.39,21.78-27,40-30.54,44.51-5.24,58.39-14.86C609.65,398.39,624.93,389.49,630.4,386.34Z"/><path class="h" d="M161.66,413.17s20,16.56,31.39,15.71,19.15-1.82,26.12,8.65,16.59,31.41,38.4,34.94,33.95,5.23,47.94,12.17,49.64,33.22,49.64,33.22,19.22-10.46,36.61-19.23,46.25-45.4,61.08-48.81,23.49,4.27,47.08-4.39,21.78-27,40-30.53,44.51-5.25,58.39-14.87,34.07-20.93,34.07-20.93l-1.82-20.93S615.86,370.34,602.74,380,560.89,400,543.48,402.71s-29.68,13-41.85,24.35-41,0-55.84,9.61-40,33.12-52.31,41.89-39.18,21.78-39.18,21.78-31.39-27-45.34-29.59-41.81-4.37-54.06-13.14-25.26-36.63-38.32-39.2-35.75-6.2-55.82-21.89C160.76,404.42,161.66,413.17,161.66,413.17Z"/><path class="i" d="M632.42,379.1l-1.82-20.93S615.86,370.34,602.74,380,560.89,400,543.48,402.71s-29.68,13-41.85,24.35-41,0-55.84,9.61-40,33.12-52.31,41.89c-10.48,7.53-31.81,18.15-37.63,21-.24,5.85-.31,13.61-.34,18,2.63-1.34,20.16-10.91,36.25-19,17.41-8.76,46.25-45.4,61.08-48.81s23.49,4.27,47.08-4.39,21.78-27,40-30.53,44.51-5.25,58.39-14.87S632.42,379.1,632.42,379.1Z"/><path class="j" d="M149.25,372.67c-7,9.64,6.25,18.18,14.71,13.35-10.84.78-18.47,12.13-10,21.69s20.3-1.23,23.2-10.13c-5.1,4.18-6.67,14.83-.17,18.07,8.08,4.05,13.41-5.43,15.21-11.74-5.11,9.93,18.46,15.44,21.34-1.4-6.74,13.35,10.08,28.17,20.31,14.45-20.53,10.39,7.87,33.86,16.74,14-6.31,7.86-10.89,22,1.1,27.45,13.07,5.94,23.55-7.2,24.09-18.85.08,10.84,17,12.39,22.55,4.44-5.85,3.59-11,11.23-6.5,18s11.81,2,16.93-1.21c-1.23,7.53-2.44,17.21,5.74,21,7.95,3.71,18.13-1.61,22.47-8.41,9.15-14.14.28-40.37-2.84-55.69-9.52-47.36-64.38-70-108.52-64.8-16,1.92-29.58,8.2-44.79,12.64C170.44,368.64,157.4,361.38,149.25,372.67Z"/><path class="k" d="M354.34,473.67c-3,13,5.54,30.27,21.61,22.14,15.31-7.73,2.76-25.72-5.17-33.48,4,12.94,23.72,2.64,18.58-7.94-1.13,9.12,8.09,20.51,18,14.16,8.91-5.71,3.18-19.67-3.22-24.78,2.61,5.81,10.55,4.66,13.36-.6,2.47-4.63,0-11.45-3.56-15.34,3.3,10.41,19.75,7.48,18.84-3.14-3.88,22.18,39.41,17.56,32.21-9.5.56,10.07,5,23.09,17.64,21.46,11.68-1.54,14.23-16.35,6.65-24.07,3.89,3.65,11.85,7.94,15.31,1,2.63-5.08-2.81-12.83-6.27-16,3.46,11.22,22.93,2.39,17.05-7-17.33,16.39,31.24,24,21.2.25-8.74,19,28.3,24.6,21.08-2.67-4.86,14.73,10,28.52,24.21,19.89,12.94-8,5.17-23.77-2.36-32.19,3.9,2.83,11.93,8.07,16.73,4.25,4.55-3.48,2-11.12-1.41-14.6,1.4,13.78,28.17,11.6,16.66-4.34,0-.16-.62-.05-.72-.16,8.11,14.07,30.3,9.68,27.71-7.95-2.36-15.39-22.53-22.52-36.12-21.41-8.06.69-15.29,4.05-22.25,7.95-11.06-7.44-35.39.46-47.42,2.4-18.66,2.95-38.19,4.65-56.4,9.82-37.4,10.54-70.12,30.23-98.95,56.32-8.93,8.12-15.52,19-22.89,28.57-4.65,6.07-11,11-15,17.63-3.91,6.45-10,22.92-2.12,28.81C343.75,488.11,352.2,479.64,354.34,473.67Z"/><path class="n" d="M225.77,390.77c-6.83,1.24-9.16,10.13-5.6,15.59,4.46,6.84,12.83,1.19,18.58-1.25-3.43,5.49-9.85,13.73-4,19.93,6.2,6.51,15.16-.07,20.48-4.12-2.32,5.7-8.24,19-2.8,24.26,6.83,6.67,16.4-5.73,19.64-10.6,2.81-4.29,3.92-8.86,4.85-13.76-1.91,7.26-.74,13.41,6.74,16.23,6.13,2.34,13.59,1.55,18.52-3.18-4.23,2.37-7.86,10.78-4.37,15,4,5.07,12.51-.44,16-3.34-2.91,6.54-3.31,17.41,4.9,19.83s13.71-3.21,17.53-9.62c.2,5.35-.92,15.6,7.46,14.73,5.54-.65,9.44-7.48,9.37-12.48a.78.78,0,0,1,.32.33c-2.55,7.45-.92,20,8.82,21.33,12.56,1.65,9.87-13.13,7-20.35a36.48,36.48,0,0,0-7.82-11.73c4.81,10.5,25.46,5.6,19.49-6.87,1.85,5.53,7.28,13.84,14.52,11.79,7.9-2.16,2.33-14.31-1.69-17.86,3.09,3.63,8.72,6.19,12.88,2.74,4.9-4.22-.1-8.73.8-13.31a14,14,0,0,0-2.86-1.39c7.72,8.86,25.75,7.94,25.78-6.48a7.55,7.55,0,0,1,1.89.61c.06,8.33,10,19.78,18.64,12.36,6.39-5.33,6.32-18.73,4.76-26A33.23,33.23,0,0,0,466.57,423c7.18,6.72,15.39,4.15,15.05-6.1-.1-4.51-1.42-8.94-2.81-13.29,3.93,2.74,10.49,8,15.12,3.76,4.13-3.8,2.54-12.17,0-16.31-5.94-9.53-21.64-10.37-31.71-11.6-23.66-2.86-47.56-.72-71.31-3.91-32.86-4.43-64.11-4.6-97,.45-19.57,3.11-38.66,8.06-58,12.3Z"/><path class="l" d="M509.57,384.8c-1.47,7.87,6.94,10.72,13.3,9.5,5.69-1.13,9.78-6.66,10.59-12.07,3.54,4.07,3.61,13.42,11.74,11.41,7.24-1.75,8-11.82,6-17.51,2,8.53,5.89,19.72,16.1,20.95,12.61,1.44,10.47-13.95,6.75-21.18a40.28,40.28,0,0,0-9.25-11.34c2.36,4.14,11.88,8.12,16.67,7.33,8-1.29,3.17-11.82-.46-15.42,3.68,12.85,26.45,7.8,18.91-4.65,6.58,8.21,21.29,7,21.59-5.7.17-11.72-15.3-18.71-25.29-17.84-5.14.43-10,2.22-15.15,2.76s-10.43-.76-15.68-.66c-9.88.31-19.53,4.44-28.44,8.47-12.69,5.67-24.88,12.31-37,18.92-4.33,2.37-10.72,4-13.3,8.4-2.74,4.52-1.22,12.39-.38,17.32C488.41,396.52,505.65,398.48,509.57,384.8Z"/><path class="p" d="M588.14,345c-9.1,4-11.16,18.91-4.75,22s21.07,1.34,24.17-7.24S606.23,336.93,588.14,345Z"/><path class="o" d="M290,430.28c-9.33,4.23-11.44,19.53-4.89,22.59s21.75,1.49,24.91-7.39S308.6,422.06,290,430.28Z"/><polygon class="f" points="161.32 358 161.96 349.19 263.5 326.19 480.73 278.07 618.8 317.38 618.8 327.51 558.52 368.13 484.06 383.02 439.5 412.81 368.38 440.56 350.11 454.03 281.77 416.86 240.46 410.78 210.68 377.55 174.82 374.21 161.32 358"/><path class="m" d="M472,391.44c-9.31,4.12-11.41,19.42-4.86,22.59s21.74,1.37,24.91-7.5S490.67,383.1,472,391.44Z"/><path class="n" d="M162.21,397.1c6,8.6,14.82-3.19,16.36-9.19-1.29,5.22-1.22,12.56,6,10.36,4-1.36,8.48-5.45,9.44-9.58-.06,7.28,2.57,13.9,11.21,11.32,7.55-2.34,9-9.28,7.76-16.2-2.06-11.92-9.58-26.82-23.55-25.36-7.52.65-14.38,4.79-21.59,6.82-4.19,1.2-12,1.43-12.75,7.05-1.12,8.81,10.37,6.47,15,4.79C164.24,380.79,157.4,390.08,162.21,397.1Z"/><path class="q" d="M193.85,377.9c-8.84,4-10.87,18.47-4.65,21.41s20.65,1.43,23.67-7S211.47,370,193.85,377.9Z"/><path class="g" d="M611.94,332.05a31.44,31.44,0,0,0-4.26-2c-6.93,3.37-14.7,8-21.18,14.47-15.68,15.69-26.15,24.46-42.69,27s-46.24,3.53-68,15.7-22.73,26.17-48.9,30.55S352.84,451,352.84,451,319.7,431,306.68,424.86,274.4,408.2,261.3,409.17s-22.62-7.07-31.39-17.52S211.66,369,197.67,370.7c-6.43.81-14.49-3.59-21.35-8.51a86.77,86.77,0,0,1-8.45,3.08c-1.05.21-2.3.5-3.63.82-1,0-2,0-3,.1l-.19,3.66s11.34,17.41,25.3,16.55,20.93.86,28.75,8.77,21.77,23.49,37.47,27,19.18-.84,36.62,8.77,63.64,37.48,63.64,37.48,16.61-18.36,34-26.16,45.28-14.86,54-17.42,24.45-25.31,52.3-30.55,53.18-4.38,65.35-9.61,45.38-41,67.15-46.26c.09-.48.26-1,.33-1.57A43.91,43.91,0,0,0,611.94,332.05Z"/><path class="h" d="M159,364.25s11.35,17.52,25.3,16.56,20.93,1,28.75,8.76,21.78,23.6,37.48,27,19.18-.85,36.62,8.76,63.62,37.48,63.62,37.48,16.62-18.25,34-26.17,45.27-14.84,54-17.41,24.46-25.31,52.32-30.55,53.16-4.37,65.33-9.61,45.37-41,67.15-46.26c1.71-6.94,0-14.84,0-14.84s-23.48,5.24-39.18,20.93-26.15,24.47-42.69,27.14-46.24,3.43-68,15.7-22.74,26.17-48.9,30.44-74.07,33.22-74.07,33.22-33.13-20.07-46.18-26.17-32.24-16.55-45.35-15.69-22.63-7.05-31.38-17.52S209.6,363.4,195.65,365.1s-35.74-20.93-35.74-20.93Z"/><path class="j" d="M161,334.44c-9.3-.47-22.84,10.08-16.91,19.16,6.86,10.32,19.67,2.9,24.29-4.68-3.75,6.4-5.27,18.42,4.34,21.71,9.86,3.36,19.52-8.4,20.14-16.22-3.72,12.53,20.85,10.14,23,.78-6.63,4.29-7.11,13.85-2.64,19.82,5.87,7.81,13,3.7,19.18-1.23-8.08,3.78-10.61,18.18-1.62,21.13s22-4.11,22.75-13c-11.09,15.32,13.72,23.29,19.8,8.07-2.16.49-2.82-.24-4.86,1.61,15-13.19,4.61-40.12-5.22-53.88C248,316.2,217,309,191.92,312c-11.24,1.44-23.51-1.63-34.15,2.69C144.89,319.89,145.46,340.32,161,334.44Z"/><path class="i" d="M623.65,318s-23.48,5.24-39.18,20.93-26.15,24.47-42.69,27.14-46.24,3.43-68,15.7-22.74,26.17-48.9,30.44c-23.37,3.94-64.13,27.33-72.53,32.23-.14,5.95-.3,12.82-.48,17.27,3.85-4,18.07-18.28,33-25,17.4-7.79,45.27-14.84,54-17.41s24.46-25.31,52.32-30.55,53.16-4.37,65.33-9.61,45.37-41,67.15-46.26C625.36,325.9,623.65,318,623.65,318Z"/><path class="j" d="M286.14,373.55c-9.24-.82-24.11,3.56-25.41,14.38-1.55,13,15.88,14.61,23.34,7.33-8.36,4.38-12.35,18.41-4.05,25,9.06,7.25,20.31-5.38,20-14.52-6.65,13.61,14.36,22.49,19.22,5.66-11,39,54.63,41.78,38.48,6.39,3.13,4.53,6.88,8.39,12.65,6.77,5.18-1.47,8.85-7.61,6.5-12.88,4.21,8.4,14,3.18,15.9-4.37-8.8,17.4,32.71,20.18,21.56-2.68,2.42,7.47,9.21,14.28,17.94,9.8,8.56-4.45,4.62-16-1.39-21.13,4.16,11.47,18.67-9.26,10.49-16.13-3.3,28.18,32.17,19.67,28.7-6,4.24,8.75,10.31,16.32,20.94,16.31s19.86-7.91,21.07-18.47c2.87-24.92-28.64-35.74-47-41.79-30-10-59.34-9.85-90.66-6.57-23.46,2.45-48,3.33-70.89,9.86-19.88,5.83-45.56,15.65-28.76,38.65Z"/><path class="k" d="M484,358.22c7.21,14.06,28.13,6.88,32.65-5.23-5.28,9.18,14.35,14.34,20.13,12.84,11.85-2.91,10.88-12.49,6.72-21.33,5.54,14.37,20.88,2.28,19-9.63,2.41,9.06,6.75,17.37,17.6,12.41,9-4.17,8.95-11.94,5.38-20.16,3.82,4.95,6.87,8,13.14,5.61,4.23-1.64,9.74-7.13,6.83-11.66-3.17,31,54.54,7.69,23.09-8,8.94,4.81,23.85-2.76,15.24-12.91-6.83-8-19-7-28.11-4-32.38-1-72.87-18.26-102.77,3.8-10,7.3-6.11,19.73-14.9,27.15C489.43,334.48,477.37,345.19,484,358.22Z"/><path class="k" d="M415.48,407.31c3,6.28,9.19,10.95,16.82,7.09,7-3.77,5.66-12.11,1.62-17.9,3,.74,6.94-3.35,8.87-8.2,6.2,13.63,30.25,4.17,27.31-17.14,4.24,8.75,10.31,16.32,20.94,16.31s19.86-7.91,21.07-18.47c2.87-24.92-28.64-35.74-47-41.79-30-10-59.34-9.85-90.66-6.57-2.83.32-5.66.53-8.51.82-11.8,31.56-15.79,75-6.43,98.65,2.81,3.36,6.11,5.71,10.9,4.42,5.18-1.47,8.85-7.61,6.5-12.88,3.69,7.44,12,4.08,15-2.08C387.78,424.22,421.85,426.26,415.48,407.31Z"/><path class="l" d="M366.35,414.41c6.47-1.07,9-11.85,7.63-17.14-.67,5.46,3.6,10.92,9.25,8.75s8.95-9.95,9.57-15.62c-.19,6.76,2.6,17.39,11.29,16.1,10.9-1.64,10.24-13.42,5.64-20.61,2.65,4.07,8.92,15.21,15,10s-1.21-15.72-3.55-20.83c4.8,9.15,13,1.2,13.64-6.49,2,10,6.89,16.23,18.1,12.9,10.13-3.11,11.36-17.31,9.76-26.1,3.9,7.43,7.65,15.69,17,16.15,11,.62,17-5,18.31-15.77a31.14,31.14,0,0,0-1.58-14.24c0,.17.32-.34.31-.32-1.74,5.28,2,12.47,8.47,11,6.73-1.41,4.15-10.23,2.88-14.66,3.69,6.4,10.08,16.43,19.14,11.61,8.27-4.55.82-19.17-2.15-25.21,1.4,7.32,7.44,13,15.2,11.76,8-1.22,9.94-8.12,14.37-13.3,0,8.22,7.35,12.81,14.93,10.05,8.89-3.22,11.32-11.24,12.43-19.7,2,4.41,3.78,9.44,9.41,9.88s11.73-3.86,10.84-9.88c3.28,14.87,30.15,6.61,14.46-8.2,3.25,1.72,9,5.43,12.87,3.22,3.64-2.25,2.57-7.59.83-10.69-5.9-9.93-19.69-7.34-29.26-9.44-4-.88-7.51-2.47-11.75-2.79-10.91-.78-22.28,1.59-33.06,3.11C519,293,480.8,296.82,444.94,309.07c-28.69,9.92-60.34,23.33-83.43,43.58a99.28,99.28,0,0,1-2.3,11.19c-1,4-3,7.86-3,12s1.25,8,1.5,12.16C358,393.89,355.75,416.07,366.35,414.41Z"/><path class="n" d="M165.69,326.47c-5.6,2.41-13.51,11.28-11.89,17.92,2.31,9.2,14.7,3.7,18.93-.85-2.22,5.87-3.81,16.27,5.85,13.75,7-1.88,9.56-7.7,12.66-13.57,1.17,5.52,4.14,9.53,10.37,8.92,4-.27,14.33-3.3,15-7.87-1.18,6.08-1,14.89,3.65,19.49,5.23,5.23,13.76,2.89,18.48-2-5.23,4.77-10.5,18.78-.25,21.61,8.16,2.18,16.12-7.48,19.22-13.68-2.06,4.8-4.27,11.18.78,15,5.72,4.37,10.3.27,14-3.82-2,5-.31,10.57,6.21,7.31,3.61-1.87,9.11-6.33,10.37-10-6,3.55-9.22,15.27-8.76,21.79.68,9.76,11.48,10,17.57,4.36,3.26-3.08,4.17-7.64,5-11.77-7.47,6.19,13.41,24.73,15.39,4.92,2,10.61,6.85,27.82,21,26.53,16.37-1.55,11.87-22.83,6.72-32.23-4.42-8-10.33-15.23-15.7-22.57-7-9.57-13.7-19.26-22-27.74-23.05-23.75-56.44-36.45-89.24-38-15.24-.65-30.76,2.81-45.68,5.55-6.37,1.17-18.92,2.73-17.05,12.45C157.15,326,161.88,327.46,165.69,326.47Z"/><path class="r" d="M188.72,287.56C200.43,282.17,200,264,214,260.43s31.34,4.38,63.64-.85S393.48,216,393.48,216s1.81,16.55,20.92,14,36.63-15.7,47.93-7.91,14,25.31,34.92,22.64,28.83-14.73,44.53-3.42,27,22.65,42.69,28.75S622,276.13,622,276.13l-32.94,31-58.67-3.88-46.89,46.53-57.63,1.44-31.39,26.16-47.08,25.32-60.18-24.47-28.75-41-61.93-6.09-31.37-22.65-7.81-16.67S171.23,295.36,188.72,287.56Z"/><path class="o" d="M264.92,363.93c-9.29,4.22-11.43,19.53-4.86,22.7s21.75,1.37,24.91-7.5S283.54,355.7,264.92,363.93Z"/><path class="m" d="M553.1,311.51c-9.28,4.22-11.51,19.53-4.85,22.59s21.75,1.48,24.81-7.39S571.69,303.28,553.1,311.51Z"/><path class="g" d="M349.82,416.57c1.63-4.8,1-10.92-.6-16.29-1.47.18-3,.49-4.64.6-23.56-8.65-44.48-13-55.81-28.74s-20-38.44-39.2-41.87S206,335.52,195.5,333.7c-6.16-1-18.64-13.26-27.9-23.08-4.14.91-8.49,2.51-10.37,5.73.21.38,3.33,4.84,7.77,10.31a1.64,1.64,0,0,0,.69-.19,1.41,1.41,0,0,1-.58.33c6.52,7.94,15.86,17.63,23.42,19.18.48.07,1,.09,1.46.14.41-.8.82-1.59,1.25-2.4a15.2,15.2,0,0,0,.78,2.66c14,.75,38.58-6.88,50.57-1.25,12.78,5.87,26.39,29.42,40,41.07a8.77,8.77,0,0,1,.92-.74,5.72,5.72,0,0,1-.48,1,3.25,3.25,0,0,1,.48.52c11.41,11.88,60.19,31.4,60.19,31.4S346.15,417.7,349.82,416.57Z"/><path class="s" d="M589,307.14l32.94-31s-21.79,0-37.49-6.08-27.12-17.42-42.69-28.75-23.6.85-44.53,3.42S473.77,230,462.33,222.08s-28.71,5.23-47.93,7.91-20.92-14-20.92-14-8.07,3.67-20.15,8.92c60.54,14.84,93.81,39.7,100.6,100.57,1.09,9.37.72,16.93-4.09,24.65l13.62-.34,46.89-46.53Z"/><path class="t" d="M255.28,291.77c-26.6-5.36-56.59,9.65-83.51,12-1.43.09-1.46,2.85-2.07,4.53l0,.16,28.68,22.65L255,337.23l26.35,41L292,383c5.49-2.2,9.55-4.27,11.57-6.07,11.74-10.83,10-33.74-3.68-56.22C288.4,301.9,281.88,297.24,255.28,291.77Z"/><path class="u" d="M584.55,270.34c-15.68-6.12-27-17.58-42.65-28.93s-23.49.81-44.41,3.34S473.91,230,462.6,222c-10.38-7.21-25.83,3.11-43.11,6.84a138.77,138.77,0,0,0,11,10c14.79-5.56,24.91-8,31.44,2.09s13.67,17.3,28.94,13.75,34.56-8.52,41.68,1.15,46.06,27.49,46.06,27.49-24.91,5.55-35.51,2.43-37-.55-45.17,12.66-16.37,31.42-27,33.91-46.69.87-57.91,9.55-9.68,16.66-27.56,29.37S344.29,394,344.29,394l8.84,5.14,41.08-22L425.65,351l57.62-1.21,47.09-46.44,58.66,4.1,33-31S600.24,276.45,584.55,270.34Z"/><path class="g" d="M593.76,319.34c14.73-5.23,35.66-20.06,35.66-20.06l-.94-5.2-.41,0c-3.11-2.88-7.21-4.06-11.6-4.74a106,106,0,0,1-15.77,10.8c-13,6.94-31.39,2.56-48.79,0s-32.25-1.7-45.37,16.56-21.79,32.26-40,34.93-29.68-11.33-47.94,0c-17.51,10.82-29.39,41.27-63.71,47.19a94.78,94.78,0,0,0,2.76,15.62c11.22-3.53,30-10,36.51-16.67,9.61-9.51,18.25-28.74,33.09-34.81s20.92,12.16,55-.86,34.81-28,43.56-36.65,14.84-14,26.16-10.46S578.92,324.48,593.76,319.34Z"/><path class="h" d="M157.32,291.82l.86,18.39s18.28,27,31.39,29.7,41-7.07,54-1,27,30.57,41,41.88,60.11,31.4,60.11,31.4,35.77-9.5,45.38-19.11,18.25-28.85,33.1-34.93,20.91,12.17,54.86-.86S513,329.44,521.7,320.66s14.84-14,26.16-10.45,27,9.6,41.86,4.37,35.64-20.07,35.64-20.07L622,276.13s-12.29,12.29-25.31,19.23-31.39,2.67-48.79,0-32.24-1.71-45.38,16.55-21.77,32.26-40.15,34.94-29.56-11.32-47.93,0S384,391.29,345.58,394.8c-23.52-8.75-44.45-13-55.77-28.73s-20.07-38.45-39.25-41.87-43.6,5.24-54.06,3.42S157.32,291.82,157.32,291.82Z"/><path class="g" d="M437,281.53c0,9.9-7.38,13.74-14.29,19.12-4,3.14-16.47,16-8.48,20a13.39,13.39,0,0,1,1.75-1.54c-4.42,6.35-2.45,22.21,7.48,15.82,6.95-4.5.81-20.75,8.11-23,8.38-2.47.56,20.33,1.14,24.05,1.23,9,14.33,13,19.53,4.73,5.56-8.87-6.46-19.92-2.95-29.26,4.08,5.68,8.46,14.85,17,9.65,7.89-4.78,2.69-12.52-2.34-17.28-9-8.6-28.38-15.28-25.14-31.06Z"/><path class="g" d="M422.24,292c-10.89-2.73-21.68-6.65-28.41-16.09-5-7.15-14.64-24.46-25.5-17.76-.32,2.57,1.11,5.31,2.37,7.48-.6.05-1.08.24-1.56.3.85,5.14,8.05,7.19,6.75,12.83-9.88,5.36-14.69-11.16-22.68-13.62-9.07-2.81-31,1.16-14.16,10.37-4.82-2.74-15-1.85-18.68,2.62,1.23,8.4,16.7,12.1,23.27,12.06,10.75-.09,19.2-4.48,30.43.21-.48,10.08-12.87,3.76-18.42,7.28-7.94,4.94-1.84,12.12,5.54,11.75,6.65-.34,13.22-4.81,19.32-6.85,6.89-2.34,14-2.49,21.2-3.3s12.92-3.67,19.67-6.43Z"/><path class="g" d="M408.24,300.66c-13.63,6.74-25.28,16.52-40.42,19.73-15.62,3.27-29.79-7.8-45.77-5.7-2.77.4-10.83,1.59-12,4.45-1.91,4.75,4.62,7.69,8.36,7.92-4.36,2.62-13.31,9-13.19,15.05.36,13.55,9.22,2.48,13.05-.34,1,8.33,4.48,9.16,8.88,1.8,3.37-5.82,4.12-12.49,12-13.95,10-1.71,11.18,6.73,5,12-5.18,4.45-14.47,6.51-18.43,12.2-8.68,12.73,6.31,6.64,11.79,6.32-5,6.89-7.38,15.7-2.92,23.6s10.47,8.71,12.38,18.66c7.86-9.59,10.85-23.45,13.26-35.15,3.2,6.19,8.1,9,11.47,2.92,3.21-5.63.8-10.08-.58-15.59-2-7.47,2.49-28.66,14.25-25.87,4.3,9.15-10.93,25.29-4.42,31.1a18.4,18.4,0,0,1,4.39-5.83c.72,9,10.29,13.46,10.84,22.53,4.76-7.88,4.5-15.17,7.52-23.34A17.29,17.29,0,0,0,405,354.6c7.66-4.2-4.54-23.1-5.89-29.48-2-10.33,5.53-17.26,10.86-25.33Z"/><path class="v" d="M433.62,278.79c0,10-7.39,13.74-14.4,19.23-3.88,3-16.36,15.86-8.48,19.9.66-.56,1.39-1.12,1.86-1.54-4.42,6.35-2.44,22.32,7.38,15.93,7-4.49.8-20.86,8.1-23,8.37-2.57.67,20.22,1.14,23.95,1.23,9.06,14.44,13.13,19.64,4.72,5.55-8.86-6.46-19.8-3.07-29.26,4.19,5.8,8.48,14.86,17.14,9.65,7.78-4.77,2.58-12.53-2.34-17.27-9.12-8.61-28.48-15.28-25.26-31.05Z"/><path class="w" d="M253.07,232l127.32-26s2.11,39.9-18.38,61.55-63,29.87-85.21,17C250.45,269.3,253.07,232,253.07,232Z"/><path class="x" d="M254.25,231.62l128.94-26.49s7.45,38.29-10.88,59.27c-18.48,21-61.67,29.44-86.46,17.38C256.48,267.54,254.25,231.62,254.25,231.62Z"/><path class="y" d="M449.66,225.58c-3.63,1.16-7.29,2.09-10.9,3.3-1.21,3.75-1.67,7.7-1.13,10.18,1.71,7.94,9,12.35,9.37,21.26-15.9-1.3-42.72-2.55-42.72-2.55l-11.83-15.94c-23.27,19.81-81.1,39.11-65.8,55.88s82.25,17.29,104.26,2a15,15,0,0,0,1.58-1.15l.22,0c11.32-5.07,18.66-14.42,22.66-23.64,4.08-6.53,5.29-11.62,3.22-12.92C458.86,251.12,453.83,236.23,449.66,225.58Z"/><path class="z" d="M344.1,220.5c13.54-2.14,30.18-2.38,27.37,10.75-6,27-38.36,40.74-52.47,41.86-30.4,2.39-50.84-23.66-45.69-31.43S304.77,226.94,344.1,220.5Z"/><path class="aa" d="M334.52,251.11c-2.15,4.39-3.64,19,5.92,16.88,12.46-2.73-2.51-13.2-5.49-15.7Z"/><path class="aa" d="M353.87,243.68c.79,2.15,7.71,18.3,12.12,8.85,2.08-4.58-9.22-7.48-12.35-9.52Z"/><path class="aa" d="M361.7,232.42c2.64,2.8,12,12.31,15.54,3.68,3.1-7.6-11.65-4.92-15.54-3.68Z"/><path class="aa" d="M315.76,252.18c-2.38,4.05-13,11-7,15.81,3.13,2.44,7.15.42,8.28-2.87s-2-8.07-3-11.17Z"/><path class="aa" d="M308.39,241.81c-4-.05-21.5,1.95-15.95,9.56,4.26,5.72,14.6-6.25,17.78-8.76Z"/><path class="ab" d="M329.39,251s9.6,11.72,13.6,15.78c11.28,11.55,28.58,25.81,47.91,29.71a54.37,54.37,0,0,0,23.47-.28l.05.28c-52.89,20.71-77.53,7.19-87.77,1.22C319.88,279.88,329.39,251,329.39,251Z"/><path class="ac" d="M437.09,207.54,329.38,251s27.7,38.67,61.53,45.48,52.3-16.5,57.46-33.83S437.09,207.54,437.09,207.54Z"/><path class="z" d="M422.69,222c-9.19,2.14-60.91,22.51-62.53,33.83s22.58,29,43.11,25.12,31.68-18.32,33.82-29S430.85,220.11,422.69,222Z"/><path class="aa" d="M412.79,256.39c5.82,1,8.67,10.85,2.22,12.73-7.93,2.19-5.19-10.84-5.07-14.76Z"/><path class="aa" d="M395.09,258.63c2.94,4,5.11,18.11-4.16,16.26-9-1.71,2-12.31,2.82-16.26Z"/><path class="aa" d="M380.33,255.77c1.25,3.42-.21,17-7.47,13-6.25-3.53,4.37-11.11,6.72-13.67Z"/><path class="aa" d="M415.6,243.81c5.18-2.16,18.67,2.45,14.43,9.35-4,6.74-10.13-5.37-13-8.09Z"/><path class="aa" d="M413,233.45c2.79-2.82,14.09-8.6,14.92-1,.64,6.54-12.36,2.93-16.35,3Z"/><path class="ad" d="M343.08,274.75c-3.15-3.94-10.72-12.47-10.72-12.47s-5.39,16.18-3,33c9.72,2.86,21.34.76,26.51-10.07C351.19,280.91,346.56,278.93,343.08,274.75Z"/><path class="ae" d="M418.78,289.27c-10.88-2.73-21.67-6.55-28.29-16.09-5.06-7.15-14.76-24.46-25.61-17.77-.22,2.57,1.11,5.32,2.36,7.58l-1.53.21c.93,5.12,8,7.17,6.73,12.81-9.77,5.37-14.59-11.15-22.61-13.61-9.11-2.81-31,1.15-14.13,10.37-4.81-2.74-15-1.73-18.76,2.74,1.26,8.27,16.77,12.1,23.28,12.05,10.8-.19,19.27-4.6,30.51.11-.48,10.07-12.87,3.75-18.45,7.26-8,5-1.9,12.14,5.57,11.75,6.55-.21,13.22-4.8,19.31-6.83,6.9-2.24,14-2.5,21.1-3.3,7.23-.81,12.92-3.68,19.66-6.44Z"/><path class="af" d="M384.89,321.76a2,2,0,0,1-1.26-.54,1.93,1.93,0,0,1-.22-2.68c9.28-10.62,21.36-20.73,27.77-25.77a160.72,160.72,0,0,1,14.77-10,136.45,136.45,0,0,0,17.18-12,62.08,62.08,0,0,0,6.44-7c2.43-3,4.94-6.17,7.95-8.36a1.95,1.95,0,0,1,2.32,3.13,43.7,43.7,0,0,0-7.3,7.66,59.75,59.75,0,0,1-6.91,7.52A138,138,0,0,1,428,286.06a165.58,165.58,0,0,0-14.41,9.7c-10.65,8.51-20.61,17.74-27.2,25.31A2.1,2.1,0,0,1,384.89,321.76Z"/><path class="ag" d="M404.9,298c-13.63,6.63-25.28,16.52-40.52,19.73-15.59,3.27-29.77-7.91-45.71-5.8-2.77.38-10.79,1.58-12,4.44-1.95,4.74,4.55,7.79,8.3,7.93-4.31,2.71-13.32,9.12-13.13,15.16.32,13.43,9.19,2.47,13-.35,1,8.23,4.48,9.05,8.87,1.69,3.41-5.71,4.11-12.48,12.06-14,10-1.7,11.2,6.74,5,12.05-5.15,4.45-14.44,6.61-18.36,12.31-8.76,12.63,6.23,6.53,11.75,6.21-5,6.89-7.37,15.7-2.87,23.6s10.46,8.82,12.3,18.67c7.9-9.49,10.85-23.46,13.24-35.16,3.21,6.19,8.17,9,11.56,2.92,3.2-5.63.8-10.07-.67-15.48-1.92-7.58,2.59-28.77,14.33-26,4.31,9.14-10.94,25.29-4.41,31.2a17.29,17.29,0,0,1,4.4-5.93c.71,9,10.17,13.57,10.83,22.52,4.75-7.88,4.5-15.17,7.4-23.33-.47-.69,1.1,1.19,1.26,1.49,7.77-4.31-4.54-23.2-5.78-29.59-2-10.23,5.53-17.26,10.87-25.32Z"/><path class="i" d="M622,276.13s-12.29,12.29-25.31,19.23-31.39,2.67-48.79,0-32.24-1.71-45.38,16.55-21.77,32.26-40.15,34.94-29.56-11.32-47.93,0c-17.93,11.2-30.19,43.44-67.13,47.67-.24,7.79-.4,13.44-.49,17.16,7.66-2.13,35-10.4,43.29-18.58,9.6-9.62,18.25-28.85,33.1-34.93s20.91,12.17,54.86-.86S513,329.44,521.7,320.66s14.84-14,26.16-10.45,27,9.6,41.86,4.37,35.64-20.07,35.64-20.07Z"/><path class="ah" d="M350.23,317.45c-10.4-2.06-20.53-6.9-31.56-5.49-2.77.38-10.79,1.58-12,4.44-1.95,4.74,4.55,7.79,8.3,7.93-4.31,2.71-13.32,9.12-13.13,15.16.32,13.43,9.19,2.47,13-.35,1,8.23,4.48,9.05,8.87,1.69,3.41-5.71,4.11-12.48,12.06-14,10-1.7,11.2,6.74,5,12.05-5.15,4.45-14.44,6.61-18.36,12.31-8.76,12.63,6.23,6.53,11.75,6.21-5,6.89-7.37,15.7-2.87,23.6s10.46,8.82,12.3,18.67c7.9-9.49,10.85-23.46,13.24-35.16a16.31,16.31,0,0,0,3,4.13,10.83,10.83,0,0,1,.47-1.39C367.62,342.11,361.2,326.76,350.23,317.45Z"/><path class="ai" d="M398.26,296.55c7.23-.81,12.92-3.68,19.66-6.44l.86-.84c-10.88-2.73-21.67-6.55-28.29-16.09-3.3-4.77-8.78-14-15.24-17.68-.44,2.85-2.58,7.13-6.86,12.33,2.29,2.44,4.9,4.55,4.05,8.18-4,2.14-7,.8-9.95-1.74a143.86,143.86,0,0,1-14.71,12.6c7.54-1.1,14.47-2.75,23,.8-.48,10.07-12.87,3.75-18.45,7.26-8,5-1.9,12.14,5.57,11.75,6.55-.21,13.22-4.8,19.31-6.83C384.06,297.61,391.18,297.35,398.26,296.55Z"/><path class="ai" d="M460.59,301.1c-9.12-8.61-28.48-15.28-25.26-31.05l-1.71,8.74c0,10-7.39,13.74-14.4,19.23-2.26,1.78-7.67,7-9.9,11.85l1,.72c22.21-8.78,39.1-5.5,48.64,9.28a10.18,10.18,0,0,0,4-1.5C470.71,313.6,465.51,305.84,460.59,301.1Z"/><path class="aj" d="M624.46,383.65c4.75-2.68,8-4.55,8-4.55l-1-11.29c4.8-2.37,8.09-7.35,7.05-14.82-1.22-8-7.26-13.73-14.74-17.3,12-2.58,22.5-13.78,4.81-22.58,8.94,4.81,23.85-2.76,15.24-12.91-4-4.61-9.75-6.18-15.69-6.14h0a21.19,21.19,0,0,0-2.39-1.85.68.68,0,0,0-.28-.1c-.14-.09-.27-.29-.52-.37L622,276.5h0l0-.36-.37.36h0l.38-.36h-.7c-8.15,9.92-27.49,34.95-75.78,18.93-16.59-5.43-32.2,1.78-49.74,27.22-7,10.17-10.26,15-17.41,19.46a53.35,53.35,0,0,0-3,5.44c-24.71,49.18-81.49,69.89-81.58,195,13.93-7.49,34.62-16.58,50.3-22.57,18.25-6.94,47.09-20.94,62.78-27a12,12,0,0,1,2-.84c6.77,3.46,15.46,2.92,23-3.93a23.67,23.67,0,0,0,7.21-12.39c6.58-4,12.79-7.6,17.41-9.86,12.28-6.2,35.77-15.7,51.46-20.09a79.3,79.3,0,0,0,27-14l-1.19-12.57a9.77,9.77,0,0,0,7.66-2.89c5.28-5.63,2.37-16.06-1.42-21.58C636.4,389.24,630.82,385.94,624.46,383.65Z"/></g></svg>